<svg width="600px" height="110px" viewBox="0 0 500 91.66666666666667" xmlns="http://www.w3.org/2000/svg"><rect fill="#d1edf6" height="110px" width="600px" x="0" y="0" /><path fill="#fff" opacity="0.25" d="M600,117.966634 L600,125 L589.763935,125 C592.831091,121.968687 596.305425,119.626979 600,117.966634 L600,117.966634 Z M78.3305299,125 C76.2140373,121.087189 73.5424738,117.39855 70.3165736,114.050849 L53.6312849,97.3586636 C53.6312849,97.3586636 54.6741155,94.1916195 54.8603352,91.9187995 C55.1955307,89.4596829 55.5679702,85.2493771 55.5679702,85.2493771 L77.16946,106.859796 C82.5609374,112.253502 86.7155296,118.418368 89.6323328,125 L78.3305299,125 L78.3305299,125 Z M27.0814443,125 L48.0446927,104.028086 L52.0670391,108.052095 C56.7964911,112.783502 58.7714883,119.162433 57.864398,125 L51.8570318,125 C52.6905191,120.891499 51.3857058,116.213535 48.0074488,112.85855 L35.8710159,125 L27.0814443,125 L27.0814443,125 Z M-1.13686838e-13,112.988685 L-1.13686838e-13,102.84305 C9.67244369,108.002819 21.9702438,106.484066 30.0931099,98.3274066 C40.0744879,88.3419026 40.0372439,72.1340883 30.0558659,62.1858437 C25.2513966,57.4166478 18.7709497,54.7335921 12.0297952,54.7335921 C7.800807,54.7105852 3.67329698,55.7461388 -1.13686838e-13,57.7046224 L-1.13686838e-13,47.3761101 C12.3281332,42.888103 26.5843112,45.6348246 36.2756052,55.3301246 C49.981378,69.0415629 50.1675978,91.0245753 36.461825,104.736014 C26.8895472,114.382662 12.6617825,117.542201 -1.13686838e-13,112.988685 Z M6.17357276e-11,80.0558091 L6.17357276e-11,68.6317101 L6.17357276e-11,80.0558091 L6.17357276e-11,80.0558091 Z M-1.13686838e-13,95.4845885 L-1.13686838e-13,91.5636807 C0.485962324,94.3890591 1.08007449,96.4644394 1.08007449,96.4644394 C1.08007449,96.4644394 0.657841293,96.1173447 -1.13686838e-13,95.4845885 L-1.13686838e-13,95.4845885 Z M6.17355056e-11,14.9037373 L6.17355056e-11,4.80947629 L6.17355056e-11,14.9037373 L6.17355056e-11,14.9037373 Z M87.3467063,0 L99.2270515,0 L87.3467063,0 Z M196.000552,0 L197.057728,0 L217.690875,20.6416761 C241.154562,44.1150623 241.191806,82.194111 217.728119,105.667497 C206.443203,116.957078 191.13594,123.291653 175.158287,123.291653 C159.217877,123.328426 143.910615,116.994337 132.662942,105.704757 L123.165736,96.203624 L132.811918,92.514949 L139.478585,99.1843715 C159.143389,118.149377 190.614525,118.00034 210.09311,98.4764439 C229.571695,78.9525481 229.757914,47.5056625 210.800745,27.8327293 L194.1527,11.1405436 C194.1527,11.1405436 195.195531,7.97349943 195.38175,5.7006795 C195.616785,3.97637707 195.870132,1.39107756 196.000552,0 L196.000552,0 Z M118.010509,0 L127.651988,0 C128.716326,4.44293188 130.983587,8.65373119 134.450652,12.1092865 C144.43203,22.0947905 160.633147,22.0575311 170.577281,12.0720272 C174.028073,8.6198091 176.281395,4.42387329 177.340326,0 L186.610755,0 C185.42356,6.76784041 182.209003,13.2527113 176.945996,18.5178935 C166.815642,28.7269536 151.471136,31.6704417 138.286778,25.8952435 L96.2756052,76.3443941 L83.1284916,63.1545866 L124.05959,14.4566251 C120.888993,10.0301573 118.883377,5.08111153 118.010509,0 L118.010509,0 Z M133.999534,-5.06261699e-13 L139.887473,-5.06261699e-13 C140.094343,5.11158454 141.564246,10.2463194 141.564246,10.2463194 C141.564246,10.2463194 136.318613,5.93417228 133.999534,-5.06261699e-13 L133.999534,-5.06261699e-13 Z M414.768451,-2.27373675e-12 L425.157303,-2.27373675e-12 C426.25758,16.6763218 420.445616,33.7210178 407.709497,46.4624009 C396.461825,57.7519819 381.154562,64.1233296 365.176909,64.0865563 C349.236499,64.1233296 333.929236,57.7892412 322.681564,46.4996602 L313.184358,36.9985277 L322.83054,33.3098528 L329.497207,39.9792752 C349.162011,58.9442809 380.633147,58.7952435 400.111732,39.2713477 C410.891257,28.4873662 415.762186,14.0658221 414.768451,-2.27373675e-12 L414.768451,-2.27373675e-12 Z M337.541899,-1.43707268e-12 L345.623836,-1.43707268e-12 L329.348231,16.282333 C334.450652,21.386863 342.532588,21.7221971 347.07635,17.1765572 C351.466645,12.784447 351.301993,5.40082978 346.683182,-1.43707268e-12 L353.967769,-1.43707268e-12 C357.719491,7.14415409 356.897829,15.7365348 351.284916,21.386863 C344.24581,28.4288788 332.476723,27.907248 324.916201,20.3436014 L326.145251,21.5731597 L307.001862,30.180068 L295.791434,18.890487 L302.122905,11.513137 L312.327747,21.7221971 L320.744879,16.4313703 L320.931099,16.617667 L337.541899,-1.43707268e-12 L337.541899,-1.43707268e-12 Z M276.46924,-1.0658141e-14 L300.577405,-1.0658141e-14 L286.294227,17.1392978 L273.147114,3.94949037 L276.46924,-1.0658141e-14 L276.46924,-1.0658141e-14 Z M600,32.8912331 L600,43.8131502 L594.972067,38.7497169 L600,32.8912331 L600,32.8912331 Z M592.301958,-1.0658141e-13 L600,-1.0658141e-13 L600,19.5405253 L585.47486,36.9985277 L572.290503,23.8087203 L592.301958,-1.0658141e-13 L592.301958,-1.0658141e-13 Z M353.81241,125 L340.148976,111.330917 C340.148976,111.330917 341.191806,108.163873 341.378026,105.891053 C341.713222,103.431937 342.085661,99.2216308 342.085661,99.2216308 L363.687151,120.83205 C365.029905,122.175359 366.29594,123.566501 367.48524,125 L353.81241,125 L353.81241,125 Z M327.491128,125 L334.52514,117.96308 L338.547486,122.024349 C339.480471,122.957719 340.306263,123.955204 341.023883,125 L327.491128,125 L327.491128,125 Z M261.35407,125 L270.055866,114.646999 C260.074488,100.712005 261.638734,81.5979615 273.743017,69.488675 C287.44879,55.7772367 309.422719,55.9635334 322.756052,69.3023783 C336.461825,83.0138165 336.648045,104.996829 322.942272,118.708267 C320.408639,121.271006 317.541748,123.375912 314.460603,125 L261.35407,125 L261.35407,125 Z M554.353741,125 C562.160002,106.837371 558.818477,85.0531093 544.394786,70.0848245 L527.709497,53.3926387 C527.709497,53.3926387 528.752328,50.2255946 528.938547,47.9527746 C529.273743,45.493658 529.646182,41.2833522 529.646182,41.2833522 L551.247672,62.8937712 C568.032973,79.6860102 572.829574,103.952832 565.610205,125 L554.353741,125 L554.353741,125 Z M492.237879,125 L472.492822,125 C471.059129,124.138615 469.699665,123.083856 468.454376,121.838052 L469.683426,123.06761 L465.385427,125 L443.956063,125 L439.366853,120.347678 L445.698324,112.970328 L455.903166,123.179388 L464.320298,117.888562 L464.506518,118.074858 L489.981378,92.5894677 L493.147114,95.7565119 L500,88.9007928 L496.648045,85.5474519 L522.122905,60.0620612 L526.145251,64.1233296 C533.705773,71.6869762 534.227188,83.4609287 527.188082,90.5029445 C521.22905,96.4644394 511.918063,97.0233296 504.506518,92.4404304 L496.759777,100.190374 C501.340782,107.567724 500.782123,116.882559 494.823091,122.881314 C494.018678,123.68606 493.152493,124.392029 492.237878,125 L492.237879,125 Z M105.772812,78.0955832 L112.104283,70.7182333 L122.309125,80.9272933 L130.726257,75.6364666 L130.912477,75.8227633 L156.387337,50.3373726 L159.553073,53.5044168 L166.405959,46.6486976 L163.054004,43.2953567 L188.528864,17.809966 L192.588454,21.8339751 C200.148976,29.3976217 200.670391,41.1715742 193.631285,48.21359 C187.672253,54.1750849 178.361266,54.7339751 170.949721,50.1510759 L163.240223,57.9010193 C167.821229,65.2783692 167.26257,74.593205 161.303538,80.5919592 C154.264432,87.6339751 142.495345,87.1123443 134.934823,79.5486976 L136.163873,80.7782559 L117.020484,89.3851642 L105.772812,78.0955832 Z M139.329609,75.4501699 C144.43203,80.5546999 152.513966,80.890034 157.057728,76.3443941 C161.638734,71.7614949 161.266294,64.0488109 156.163873,58.6089468 L139.329609,75.4501699 Z M171.657356,43.4816535 C176.759777,48.5861835 184.841713,48.9215176 189.385475,44.3758777 C193.96648,39.7929785 193.594041,31.707701 188.49162,26.6404304 L171.657356,43.4816535 Z M280.446927,76.1580974 C270.465549,86.1436014 270.502793,102.351416 280.484171,112.29966 C290.465549,122.285164 306.666667,122.247905 316.610801,112.262401 C326.592179,102.276897 326.554935,86.0690827 316.573557,76.1208381 C311.769088,71.3516421 305.288641,68.6689694 298.547486,68.6689694 C291.731844,68.6689694 285.251397,71.3516421 280.446927,76.1580974 Z M472.92365,117.702265 C478.026071,122.806795 486.108007,123.142129 490.651769,118.596489 C495.195531,114.050849 494.860335,106.300906 489.757914,100.861042 L472.92365,117.702265 Z M505.251397,85.7337486 C510.353818,90.8382786 518.435754,91.1736127 522.979516,86.6279728 C527.523277,82.082333 527.188082,73.9597961 522.085661,68.8925255 L505.251397,85.7337486 Z M416.722533,105.406682 L457.653631,56.7087203 C447.672253,42.7737259 449.236499,23.6596829 461.340782,11.5503964 C475.046555,-2.1610419 497.020484,-1.97474519 510.353818,11.3640997 C524.05959,25.0755379 524.24581,47.0585504 510.540037,60.7699887 C500.409683,70.9790487 485.065177,73.9225368 471.880819,68.1473386 L429.90689,118.596489 L416.722533,105.406682 Z M468.007449,18.2570781 C458.026071,28.2425821 458.063315,44.4503964 468.044693,54.398641 C478.026071,64.384145 494.227188,64.3468856 504.171322,54.3613817 C514.115456,44.3758777 514.115456,28.1680634 504.134078,18.2198188 C499.329609,13.4506229 492.849162,10.7668243 486.070764,10.7668243 C479.329609,10.7306908 472.811918,13.4133635 468.007449,18.2570781 Z M279.031657,93.4091733 C279.515829,88.714496 281.489758,84.2806342 284.655493,80.7409966 L290.614525,86.7024915 C290.614525,86.7024915 286.927374,89.683239 286.03352,96.5389581 C285.325885,102.500453 287.597765,110.436693 287.597765,110.436693 C287.597765,110.436693 277.988827,102.537712 279.031657,93.4091733 Z M466.592179,35.4708947 C467.07635,30.7762174 469.050279,26.3423556 472.216015,22.802718 L478.175047,28.7642129 C478.175047,28.7642129 474.487896,31.7449604 473.594041,38.6006795 C472.886406,44.5621744 475.158287,52.4984145 475.158287,52.4984145 C475.158287,52.4984145 465.549348,44.5994337 466.592179,35.4708947 Z" /></svg>